<mxfile host="Electron" agent="Mozilla/5.0 (Macintosh; Intel Mac OS X 10_15_7) AppleWebKit/537.36 (KHTML, like Gecko) draw.io/26.1.1 Chrome/132.0.6834.210 Electron/34.3.3 Safari/537.36" version="26.1.1">
  <diagram name="Page-1" id="8DL5_1IoP8wSCEpqvtOt">
    <mxGraphModel dx="1114" dy="878" grid="1" gridSize="10" guides="1" tooltips="1" connect="1" arrows="1" fold="1" page="1" pageScale="1" pageWidth="827" pageHeight="1169" math="0" shadow="0">
      <root>
        <mxCell id="0" />
        <mxCell id="1" parent="0" />
        <mxCell id="tSoEoXtb6CFdtz69-7Vc-1" value="" style="rounded=1;whiteSpace=wrap;html=1;fillColor=#f5f5f5;fontColor=#333333;strokeColor=#666666;" vertex="1" parent="1">
          <mxGeometry x="225" y="300" width="225" height="140" as="geometry" />
        </mxCell>
        <mxCell id="tSoEoXtb6CFdtz69-7Vc-2" value="주문이&lt;div&gt;생성됐다&lt;/div&gt;" style="whiteSpace=wrap;html=1;aspect=fixed;fillColor=#ffe6cc;strokeColor=#d79b00;" vertex="1" parent="1">
          <mxGeometry x="310" y="140" width="60" height="60" as="geometry" />
        </mxCell>
        <mxCell id="tSoEoXtb6CFdtz69-7Vc-3" value="이벤트" style="whiteSpace=wrap;html=1;aspect=fixed;fillColor=#ffe6cc;strokeColor=#d79b00;" vertex="1" parent="1">
          <mxGeometry x="245" y="315" width="40" height="40" as="geometry" />
        </mxCell>
        <mxCell id="tSoEoXtb6CFdtz69-7Vc-4" value="주문을&lt;div&gt;제출한다&lt;/div&gt;" style="whiteSpace=wrap;html=1;aspect=fixed;fillColor=#dae8fc;strokeColor=#6c8ebf;" vertex="1" parent="1">
          <mxGeometry x="230" y="140" width="60" height="60" as="geometry" />
        </mxCell>
        <mxCell id="tSoEoXtb6CFdtz69-7Vc-5" value="" style="whiteSpace=wrap;html=1;aspect=fixed;fillColor=#d80073;strokeColor=#A50040;rotation=45;fontColor=#ffffff;" vertex="1" parent="1">
          <mxGeometry x="315" y="315" width="40" height="40" as="geometry" />
        </mxCell>
        <mxCell id="tSoEoXtb6CFdtz69-7Vc-6" value="고충점" style="text;html=1;align=center;verticalAlign=middle;whiteSpace=wrap;rounded=0;fontColor=#FFFFFF;" vertex="1" parent="1">
          <mxGeometry x="305" y="320" width="60" height="30" as="geometry" />
        </mxCell>
        <mxCell id="tSoEoXtb6CFdtz69-7Vc-7" value="커맨드" style="whiteSpace=wrap;html=1;aspect=fixed;fillColor=#dae8fc;strokeColor=#6c8ebf;" vertex="1" parent="1">
          <mxGeometry x="385" y="315" width="40" height="40" as="geometry" />
        </mxCell>
        <mxCell id="tSoEoXtb6CFdtz69-7Vc-8" value="고객" style="whiteSpace=wrap;html=1;aspect=fixed;fillColor=#fff2cc;strokeColor=#d6b656;" vertex="1" parent="1">
          <mxGeometry x="245" y="380" width="40" height="40" as="geometry" />
        </mxCell>
        <mxCell id="tSoEoXtb6CFdtz69-7Vc-9" value="쇼핑 카트" style="whiteSpace=wrap;html=1;aspect=fixed;fillColor=#d5e8d4;strokeColor=#82b366;" vertex="1" parent="1">
          <mxGeometry x="125" y="140" width="60" height="60" as="geometry" />
        </mxCell>
        <mxCell id="tSoEoXtb6CFdtz69-7Vc-10" value="정책" style="whiteSpace=wrap;html=1;aspect=fixed;fillColor=#e1d5e7;strokeColor=#9673a6;" vertex="1" parent="1">
          <mxGeometry x="315" y="380" width="40" height="40" as="geometry" />
        </mxCell>
        <mxCell id="tSoEoXtb6CFdtz69-7Vc-11" value="고객" style="whiteSpace=wrap;html=1;aspect=fixed;fillColor=#fff2cc;strokeColor=#d6b656;" vertex="1" parent="1">
          <mxGeometry x="195" y="180" width="60" height="60" as="geometry" />
        </mxCell>
        <mxCell id="tSoEoXtb6CFdtz69-7Vc-12" value="배송비가&lt;div&gt;결제됐다&lt;/div&gt;" style="whiteSpace=wrap;html=1;aspect=fixed;fillColor=#ffe6cc;strokeColor=#d79b00;" vertex="1" parent="1">
          <mxGeometry x="390" y="140" width="60" height="60" as="geometry" />
        </mxCell>
        <mxCell id="tSoEoXtb6CFdtz69-7Vc-13" value="읽기&lt;div&gt;모델&lt;/div&gt;" style="whiteSpace=wrap;html=1;aspect=fixed;fillColor=#d5e8d4;strokeColor=#82b366;" vertex="1" parent="1">
          <mxGeometry x="385" y="380" width="40" height="40" as="geometry" />
        </mxCell>
      </root>
    </mxGraphModel>
  </diagram>
</mxfile>
